<svg width="300" height="80" viewBox="0 0 300 80" fill="none" xmlns="http://www.w3.org/2000/svg">
<path d="M86.8966 35.6611C86.7109 35.474 86.3661 35.2199 85.8622 34.899C85.3848 34.5781 84.7881 34.2706 84.072 33.9765C83.3825 33.6823 82.6266 33.4283 81.8044 33.2144C80.9823 32.9737 80.1468 32.8534 79.2982 32.8534C77.8129 32.8534 76.6858 33.1342 75.9167 33.6957C75.1741 34.2573 74.8028 35.0461 74.8028 36.0622C74.8028 36.8377 75.0415 37.4527 75.5188 37.9073C75.9962 38.3619 76.7123 38.7497 77.6671 39.0705C78.6219 39.3914 79.8153 39.739 81.2475 40.1134C83.104 40.568 84.7085 41.1296 86.0611 41.7981C87.4402 42.4398 88.4878 43.2955 89.2039 44.3651C89.9465 45.408 90.3178 46.7985 90.3178 48.5367C90.3178 50.0609 90.0394 51.3711 89.4824 52.4675C88.9255 53.5371 88.1563 54.4062 87.175 55.0747C86.1937 55.7432 85.0798 56.2379 83.8333 56.5588C82.5868 56.8529 81.2607 57 79.8551 57C78.4495 57 77.0438 56.8529 75.6382 56.5588C74.2325 56.2646 72.88 55.8502 71.5804 55.3154C70.2808 54.7538 69.0874 54.0853 68 53.3098L70.4267 48.5367C70.6654 48.7773 71.0898 49.0982 71.6997 49.4993C72.3097 49.8737 73.0523 50.2614 73.9276 50.6625C74.8028 51.0369 75.7575 51.3578 76.7919 51.6252C77.8262 51.8926 78.8738 52.0263 79.9347 52.0263C81.4199 52.0263 82.547 51.7722 83.3162 51.2642C84.0853 50.7561 84.4698 50.0341 84.4698 49.0982C84.4698 48.2425 84.1648 47.574 83.5549 47.0927C82.9449 46.6113 82.0962 46.1969 81.0088 45.8492C79.9214 45.4749 78.6351 45.0738 77.1499 44.6459C75.373 44.1379 73.8878 43.5763 72.6943 42.9613C71.5008 42.3195 70.6124 41.5173 70.0289 40.5546C69.4454 39.592 69.1537 38.3887 69.1537 36.9447C69.1537 34.9926 69.6045 33.3615 70.5063 32.0512C71.4345 30.7142 72.681 29.7114 74.2458 29.0429C75.8106 28.3476 77.5477 28 79.4573 28C80.7834 28 82.0299 28.1471 83.1968 28.4412C84.3903 28.7354 85.5042 29.1231 86.5385 29.6044C87.5729 30.0858 88.5011 30.6072 89.3233 31.1687L86.8966 35.6611Z" fill="#F7F7F7"/>
<path d="M96.0577 56.6791V28.2006H101.548V51.8257H115.949V56.6791H96.0577Z" fill="#F7F7F7"/>
<path d="M132.314 56.8797C130.245 56.8797 128.362 56.4786 126.664 55.6763C124.994 54.8741 123.548 53.7911 122.328 52.4274C121.135 51.0369 120.207 49.4859 119.543 47.7745C118.88 46.0364 118.549 44.2582 118.549 42.4398C118.549 40.5413 118.894 38.7363 119.583 37.0249C120.299 35.2868 121.267 33.7492 122.487 32.4122C123.734 31.0484 125.193 29.9788 126.863 29.2033C128.561 28.4011 130.417 28 132.433 28C134.475 28 136.332 28.4145 138.002 29.2434C139.7 30.0724 141.145 31.1821 142.339 32.5726C143.532 33.9631 144.46 35.5141 145.123 37.2254C145.786 38.9368 146.118 40.7017 146.118 42.5201C146.118 44.3919 145.773 46.1969 145.084 47.935C144.394 49.6464 143.426 51.184 142.18 52.5477C140.96 53.8847 139.501 54.941 137.804 55.7165C136.133 56.4919 134.303 56.8797 132.314 56.8797ZM124.118 42.4398C124.118 43.6699 124.304 44.8598 124.675 46.0097C125.047 47.1595 125.577 48.189 126.267 49.0982C126.983 49.9806 127.845 50.6893 128.853 51.2241C129.887 51.7321 131.054 51.9862 132.353 51.9862C133.679 51.9862 134.86 51.7188 135.894 51.184C136.928 50.6224 137.79 49.887 138.48 48.9779C139.169 48.042 139.687 47.0124 140.031 45.8893C140.403 44.7395 140.588 43.5897 140.588 42.4398C140.588 41.2098 140.389 40.0332 139.992 38.9101C139.62 37.7603 139.077 36.7441 138.36 35.8617C137.671 34.9525 136.809 34.2439 135.775 33.7358C134.767 33.201 133.626 32.9336 132.353 32.9336C131.001 32.9336 129.807 33.2144 128.773 33.7759C127.765 34.3107 126.916 35.0327 126.227 35.9419C125.537 36.8511 125.007 37.8672 124.636 38.9903C124.291 40.1134 124.118 41.2633 124.118 42.4398Z" fill="#F7F7F7"/>
<path d="M160.461 28.2808H165.553L168.776 37.7068L172.038 28.2808H177.09L172.237 41.2365L175.817 50.3015L183.813 28.2006H189.781L178.482 56.6791H173.748L168.776 44.7261L163.843 56.6791H159.108L147.85 28.2006H153.738L161.774 50.3015L165.275 41.2365L160.461 28.2808Z" fill="#F7F7F7"/>
<path d="M210.316 35.6611C210.131 35.474 209.786 35.2199 209.282 34.899C208.805 34.5781 208.208 34.2706 207.492 33.9765C206.802 33.6823 206.046 33.4283 205.224 33.2144C204.402 32.9737 203.567 32.8534 202.718 32.8534C201.233 32.8534 200.105 33.1342 199.336 33.6957C198.594 34.2573 198.222 35.0461 198.222 36.0622C198.222 36.8377 198.461 37.4527 198.939 37.9073C199.416 38.3619 200.132 38.7497 201.087 39.0705C202.042 39.3914 203.235 39.739 204.667 40.1134C206.524 40.568 208.128 41.1296 209.481 41.7981C210.86 42.4398 211.908 43.2955 212.624 44.3651C213.366 45.408 213.738 46.7985 213.738 48.5367C213.738 50.0609 213.459 51.3711 212.902 52.4675C212.345 53.5371 211.576 54.4062 210.595 55.0747C209.613 55.7432 208.5 56.2379 207.253 56.5588C206.006 56.8529 204.68 57 203.275 57C201.869 57 200.464 56.8529 199.058 56.5588C197.652 56.2646 196.3 55.8502 195 55.3154C193.701 54.7538 192.507 54.0853 191.42 53.3098L193.846 48.5367C194.085 48.7773 194.509 49.0982 195.119 49.4993C195.729 49.8737 196.472 50.2614 197.347 50.6625C198.222 51.0369 199.177 51.3578 200.212 51.6252C201.246 51.8926 202.293 52.0263 203.354 52.0263C204.84 52.0263 205.967 51.7722 206.736 51.2642C207.505 50.7561 207.89 50.0341 207.89 49.0982C207.89 48.2425 207.585 47.574 206.975 47.0927C206.365 46.6113 205.516 46.1969 204.428 45.8492C203.341 45.4749 202.055 45.0738 200.57 44.6459C198.793 44.1379 197.307 43.5763 196.114 42.9613C194.921 42.3195 194.032 41.5173 193.449 40.5546C192.865 39.592 192.573 38.3887 192.573 36.9447C192.573 34.9926 193.024 33.3615 193.926 32.0512C194.854 30.7142 196.101 29.7114 197.665 29.0429C199.23 28.3476 200.967 28 202.877 28C204.203 28 205.45 28.1471 206.616 28.4412C207.81 28.7354 208.924 29.1231 209.958 29.6044C210.993 30.0858 211.921 30.6072 212.743 31.1687L210.316 35.6611Z" fill="#F7F7F7"/>
<path d="M231.531 56.8797C229.463 56.8797 227.58 56.4786 225.882 55.6763C224.211 54.8741 222.766 53.7911 221.546 52.4274C220.353 51.0369 219.424 49.4859 218.761 47.7745C218.098 46.0364 217.767 44.2582 217.767 42.4398C217.767 40.5413 218.111 38.7363 218.801 37.0249C219.517 35.2868 220.485 33.7492 221.705 32.4122C222.952 31.0484 224.41 29.9788 226.081 29.2033C227.779 28.4011 229.635 28 231.651 28C233.693 28 235.549 28.4145 237.22 29.2434C238.918 30.0724 240.363 31.1821 241.556 32.5726C242.75 33.9631 243.678 35.5141 244.341 37.2254C245.004 38.9368 245.336 40.7017 245.336 42.5201C245.336 44.3919 244.991 46.1969 244.301 47.935C243.612 49.6464 242.644 51.184 241.397 52.5477C240.177 53.8847 238.719 54.941 237.021 55.7165C235.35 56.4919 233.52 56.8797 231.531 56.8797ZM223.336 42.4398C223.336 43.6699 223.522 44.8598 223.893 46.0097C224.264 47.1595 224.795 48.189 225.484 49.0982C226.201 49.9806 227.062 50.6893 228.07 51.2241C229.105 51.7321 230.272 51.9862 231.571 51.9862C232.897 51.9862 234.077 51.7188 235.112 51.184C236.146 50.6224 237.008 49.887 237.698 48.9779C238.387 48.042 238.904 47.0124 239.249 45.8893C239.62 44.7395 239.806 43.5897 239.806 42.4398C239.806 41.2098 239.607 40.0332 239.209 38.9101C238.838 37.7603 238.294 36.7441 237.578 35.8617C236.889 34.9525 236.027 34.2439 234.992 33.7358C233.985 33.201 232.844 32.9336 231.571 32.9336C230.219 32.9336 229.025 33.2144 227.991 33.7759C226.983 34.3107 226.134 35.0327 225.445 35.9419C224.755 36.8511 224.225 37.8672 223.853 38.9903C223.509 40.1134 223.336 41.2633 223.336 42.4398Z" fill="#F7F7F7"/>
<path d="M251.138 56.6791V28.2006H263.63C264.93 28.2006 266.123 28.468 267.21 29.0028C268.324 29.5376 269.279 30.2596 270.075 31.1687C270.897 32.0779 271.52 33.0941 271.945 34.2172C272.395 35.3402 272.621 36.4901 272.621 37.6667C272.621 38.87 272.409 40.0332 271.984 41.1563C271.586 42.2527 271.003 43.2153 270.234 44.0443C269.465 44.8732 268.563 45.515 267.529 45.9696L273.973 56.6791H267.927L262.118 47.1328H256.628V56.6791H251.138ZM256.628 42.2794H263.511C264.2 42.2794 264.81 42.0788 265.341 41.6777C265.871 41.2499 266.295 40.6883 266.614 39.9931C266.932 39.2978 267.091 38.5224 267.091 37.6667C267.091 36.7575 266.905 35.9686 266.534 35.3001C266.163 34.6049 265.685 34.0567 265.102 33.6556C264.545 33.2545 263.935 33.0539 263.272 33.0539H256.628V42.2794Z" fill="#F7F7F7"/>
<path d="M300 33.0539H290.969V56.6791H285.519V33.0539H276.489V28.2006H300V33.0539Z" fill="#F7F7F7"/>
<path fill-rule="evenodd" clip-rule="evenodd" d="M20.5 26.2121C12.609 26.2121 6.21212 32.609 6.21212 40.5H0C0 29.1782 9.17816 20 20.5 20V26.2121ZM20.5 54.7879C28.391 54.7879 34.7879 48.391 34.7879 40.5H41C41 51.8218 31.8218 61 20.5 61V54.7879Z" fill="#F7F7F7"/>
</svg>
