<svg width="827" height="97" viewBox="0 0 827 97" fill="none" xmlns="http://www.w3.org/2000/svg">
<path d="M77.5215 32.2088L77.5211 32.209C76.6765 32.7271 76.3743 33.2802 76.3217 33.9031C76.2596 34.6379 76.5253 35.7345 77.4322 37.2914L76.1612 38.0317L77.4322 37.2914C80.5937 42.7187 81.6939 46.6141 81.8817 53.0066C81.9602 55.6772 81.9303 57.7249 81.7713 59.1039C81.6948 59.7673 81.5745 60.4187 81.3461 60.9272C81.2336 61.1777 81.0297 61.5445 80.6547 61.822C80.2042 62.1554 79.6344 62.2628 79.0863 62.1035L77.5215 32.2088ZM77.5215 32.2088C78.3491 31.7009 79.4251 31.702 80.2408 32.2022C80.4019 32.301 80.8019 32.6898 81.3849 33.5339C81.9285 34.3209 82.529 35.3507 83.1267 36.5231C84.3252 38.8735 85.4523 41.6773 86.0659 44.0341L86.0659 44.0343C86.3836 45.2539 86.8224 47.3569 87.0333 48.6721C87.2699 50.1486 87.3413 52.8471 87.2524 55.6251C87.1634 58.4078 86.9206 61.0521 86.5958 62.4298L86.0533 64.7303L85.892 65.4146L86.3147 65.9763L87.8633 68.0346C87.8633 68.0347 87.8633 68.0347 87.8633 68.0347C90.4957 71.5342 91.5 74.5119 91.5 78.7591C91.5 90.5356 79.4324 98.689 68.5423 94.2878C60.6894 91.1141 56.2396 81.9255 58.6435 73.9495C60.3853 68.1705 65.628 63.2281 71.065 62.0926L71.0653 62.0926C71.7028 61.9593 73.4288 61.8747 75.2808 61.883C76.1752 61.887 77.0472 61.9122 77.7604 61.9568C78.1176 61.9792 78.4235 62.0057 78.6665 62.035C78.7877 62.0496 78.886 62.0641 78.9625 62.0776C79.0003 62.0843 79.0299 62.0903 79.0521 62.0952C79.0574 62.0964 79.0621 62.0975 79.0662 62.0984C79.0706 62.0995 79.0743 62.1004 79.0774 62.1012L79.0841 62.1029L79.0856 62.1033L77.5215 32.2088ZM13.9082 53.8715L13.9081 53.8715C8.71303 55.2783 4.24183 59.3838 2.37148 64.4751C1.98262 65.5337 1.68246 67.2522 1.55976 69.0899C1.43719 70.9256 1.5045 72.6876 1.7499 73.8225L1.74991 73.8226C3.12898 80.202 8.41364 85.3925 15.0434 86.7952C17.6495 87.3464 20.7697 87.1589 23.3205 86.2945C23.3205 86.2945 23.3205 86.2944 23.3206 86.2944L25.196 85.6587L25.858 85.4342L26.4557 85.7969L29.0827 87.3909C32.0044 89.1636 35.7173 90.689 39.3461 91.7019C43.0007 92.7221 46.4147 93.1789 48.7628 92.935C49.74 92.8335 50.2013 92.6818 50.4789 92.5141C50.7166 92.3704 50.9559 92.1328 51.2758 91.51C51.6111 90.8571 51.687 90.5317 51.6935 90.3058C51.6998 90.0901 51.648 89.7902 51.3595 89.1785L52.5968 88.595L51.3595 89.1784C51.0625 88.5486 50.8487 88.3484 50.4644 88.1783C49.9121 87.9337 48.9667 87.754 47.0421 87.5801C47.042 87.5801 47.042 87.5801 47.042 87.5801L47.1769 86.0862L13.9082 53.8715ZM13.9082 53.8715C14.832 53.6212 16.4321 53.4679 18.1392 53.4631C19.8474 53.4582 21.4397 53.6026 22.3498 53.8461M13.9082 53.8715L22.3498 53.8461M22.3498 53.8461C28.0893 55.383 32.8378 60.1318 34.4853 66.0403L22.3498 53.8461ZM47.2244 1.92216L47.2245 1.92214C48.1937 1.65991 49.733 1.50429 51.3721 1.50009C53.0083 1.49589 54.5744 1.64296 55.592 1.9037C59.8792 3.00208 64.2674 6.43564 66.223 10.1764L67.5523 9.48141L66.223 10.1764C71.9721 21.1725 64.7746 34.2379 52.5575 35.1365L52.5574 35.1365C49.7357 35.3442 46.8785 34.7785 44.0629 33.4211C42.9807 32.8994 41.4424 31.7467 39.9999 30.3953C38.5427 29.03 37.3967 27.6613 36.9601 26.7974C36.729 26.3401 36.4513 25.903 36.1698 25.5576C36.0318 25.3884 35.8622 25.203 35.6674 25.0451C35.5486 24.9488 35.1188 24.6023 34.5035 24.6023C34.0995 24.6023 33.7367 24.7508 33.5822 24.8154C33.3629 24.907 33.126 25.0269 32.8891 25.1569C32.4114 25.4192 31.8363 25.7769 31.2274 26.1827C30.0072 26.9959 28.5679 28.0581 27.3607 29.0709L28.3248 30.2201L27.3607 29.0709C24.3144 31.6269 21.062 35.9141 19.125 39.8799L20.2803 40.4442L19.125 39.8799C18.1734 41.8282 17.6092 42.7442 17.1364 43.2083C16.9375 43.4036 16.7798 43.4908 16.6258 43.5431C16.4519 43.6023 16.2028 43.6437 15.7816 43.6437C14.786 43.6437 14.0857 43.2903 13.6643 42.8213C13.2461 42.3559 12.9895 41.6518 13.1139 40.7178C13.1967 40.0967 13.6766 38.7999 14.5291 37.1144C15.351 35.4893 16.4307 33.6738 17.5604 32.0758C21.2233 26.8946 26.0133 22.6759 31.2602 19.9793C32.4563 19.3648 33.3439 18.9006 33.8861 18.4327C34.2096 18.1534 34.495 17.8079 34.6665 17.3507C34.825 16.9283 34.8383 16.5286 34.8397 16.267C34.8415 15.9281 35.0151 14.8422 35.2639 13.9019L35.2639 13.9017C36.7764 8.18361 41.4668 3.47951 47.2244 1.92216Z" fill="#EEEADD" fill-opacity="0.37" stroke="black" stroke-width="3"/>
<mask id="path-2-inside-1_7_7" fill="white">
<path d="M110.813 30.3032C110.813 20.733 111.217 19.8355 118.519 13.2023C126.013 6.39433 126.606 6.19952 140.021 6.12669C153.65 6.05386 153.922 6.14299 162.328 13.5737C169.896 20.2651 170.777 21.8256 170.289 27.6849C169.792 33.6517 169.183 34.329 163.847 34.8443C158.778 35.3359 157.955 34.8443 157.955 31.321C157.955 29.0687 156.181 25.3289 154.013 23.011C150.891 19.6753 148.146 18.7976 140.817 18.7976C135.377 18.7976 129.904 19.9648 127.536 21.6326C122.348 25.2797 122.308 32.7613 127.447 38.2546C130.788 41.8252 133.209 42.4716 143.312 42.488C154.771 42.5062 155.536 42.7958 162.941 49.9078C170.126 56.8087 170.646 57.9649 170.646 67.0434C170.646 76.2184 170.21 77.1543 163.068 83.294C155.568 89.7397 155.315 89.8089 139.044 89.7597C122.798 89.7105 122.517 89.634 115.799 83.3614C110.137 78.0756 109 75.8014 109 69.7564C109 62.6734 109.154 62.4968 115.346 62.4968C120.662 62.4968 121.692 63.1414 121.692 66.4771C121.692 68.6657 123.465 72.3528 125.634 74.6707C128.774 78.0246 131.496 78.8841 138.987 78.8841C156.033 78.8841 163.693 67.3948 152.968 57.9157C148.922 54.3378 145.97 53.4966 137.29 53.4511C127.759 53.3983 125.742 52.6882 118.706 46.898C111.116 40.6527 110.813 40.0153 110.813 30.3032Z"/>
<path d="M199.466 45.8055C202.944 43.626 203.283 41.7506 203.283 24.7316V6.05201H209.629H215.975V42.468V78.8841H235.013H254.051V84.3465V89.8088H228.667H203.283V73.083C203.283 58.5876 202.775 55.8145 199.466 52.2785L195.65 48.1999L199.466 45.8055Z"/>
<path d="M283.061 32.0093C283.061 21.1082 283.198 20.806 291.475 13.49L299.89 6.05201H315.086H330.284L338.401 13.5665C346.297 20.8752 346.52 21.385 346.52 32.0877C346.52 39.9626 347.412 44.0812 349.655 46.5703C352.627 49.8677 352.627 50.1409 349.655 51.8124C347.198 53.1926 346.52 56.0694 346.52 65.106C346.52 76.253 346.277 76.8611 339.262 83.2248C332.017 89.7979 331.975 89.8088 315.111 89.8088C298.356 89.8088 298.157 89.756 290.639 83.294C283.231 76.9267 283.061 76.5206 283.061 65.3099C283.061 57.2492 282.237 53.1525 280.296 51.5338C277.817 49.469 277.817 48.9101 280.296 46.1606C282.136 44.1177 283.061 39.3872 283.061 32.0093Z"/>
<path d="M376.593 45.9785C379.862 43.2546 379.552 41.0368 372.994 20.1632L368.559 6.05201H375.541C382.491 6.05201 382.54 6.10478 385.497 16.5216C396.167 54.1229 401.534 71.5844 402.212 70.9053C402.638 70.4755 405.808 57.1419 409.251 41.2736C417.535 3.12051 416.28 6.05201 424.314 6.05201H431.152L438.138 38.8427C441.978 56.8778 445.675 71.0108 446.351 70.2516C447.028 69.4923 451.562 54.7421 456.43 37.4736L465.28 6.07742L472.08 6.06478C475.82 6.0575 478.864 6.66562 478.846 7.41761C478.83 8.1696 476.388 16.5089 473.419 25.9516C468.377 41.9965 468.221 43.3365 471.022 46.4465C474.31 50.0935 474.283 50.1663 468.609 53.127C465.83 54.5763 463.001 60.25 458.909 72.5877L453.132 90L445.66 89.4501L438.19 88.8984L431.455 60.0369C425.27 33.5278 422.641 25.0284 422.69 31.6944C422.701 33.1128 419.767 46.7688 416.17 62.0416L409.63 89.8088H401.899H394.169L389.114 72.6204C384.694 57.5879 383.41 55.1627 378.888 53.2818C372.985 50.8256 372.526 49.3688 376.593 45.9785Z"/>
<path d="M500.636 30.4799C500.636 21.3923 501.146 20.267 508.342 13.4462C515.961 6.22494 516.206 6.1431 530.14 6.09758C544.182 6.05206 544.262 6.07928 552.441 13.6502C559.63 20.3052 560.584 22.0604 560.107 27.7613C559.616 33.6443 558.992 34.329 553.67 34.8443C548.36 35.3596 547.778 34.9372 547.778 30.5855C547.778 23.4334 541.312 18.9306 530.943 18.8577C519.886 18.7813 513.328 22.8543 513.328 29.7988C513.328 37.9123 520.628 42.468 533.624 42.468C543.365 42.468 545.12 43.0998 552.419 49.2268C560.207 55.7653 560.47 56.3206 560.47 66.3113C560.47 76.0508 560.056 77.014 553.212 83.2248C545.981 89.7851 545.894 89.8088 529.264 89.8088H512.574L505.699 83.0664C500.127 77.6022 498.823 75.0148 498.823 69.4104C498.823 62.7226 499.032 62.4968 505.169 62.4968C510.485 62.4968 511.515 63.1414 511.515 66.4771C511.515 68.6657 513.288 72.3528 515.457 74.6707C520.991 80.5846 537.425 80.734 543.582 74.9256C553.926 65.1661 544.781 53.3928 526.852 53.3928C517.821 53.3928 515.745 52.6408 508.647 46.8015C500.994 40.5015 500.636 39.7751 500.636 30.4799Z"/>
<path d="M591.293 30.855C591.293 20.1377 591.523 19.6042 598.999 13.0074C606.605 6.29597 606.904 6.20675 622.116 6.20493C637.45 6.20129 637.568 6.23774 645.234 13.2023C652.764 20.0431 652.939 20.4673 652.939 31.8072C652.939 41.6341 653.525 43.779 656.756 45.8055L660.573 48.1999L656.756 52.2785C653.802 55.4357 652.939 58.6932 652.939 66.6865C652.939 76.2785 652.455 77.4656 646.14 83.3614C639.395 89.6595 639.205 89.7105 622.448 89.7597C606.021 89.807 605.357 89.645 598.457 83.8913C591.67 78.234 591.356 77.4984 591.326 67.1654C591.3 58.868 590.444 55.4521 587.638 52.4514L583.984 48.5459L587.638 45.2246C590.537 42.5899 591.293 39.6203 591.293 30.855Z"/>
<path d="M684.254 46.5703C686.792 43.7535 687.389 39.5693 687.389 24.5714V6.05201H708.086H728.783L736.189 14.5023C742.356 21.5379 743.596 24.2382 743.596 30.6328C743.596 37.0129 742.356 39.7277 736.276 46.6649L728.955 55.0171L737.183 71.4661C741.707 80.5137 745.409 88.3413 745.409 88.862C745.409 89.3828 742.548 89.8088 739.05 89.8088C732.83 89.8088 732.51 89.4392 724.137 72.5112L715.581 55.2136H707.83H700.081V72.5112V89.8088H693.735H687.389V71.6918C687.389 56.4135 686.898 53.2982 684.254 51.8124C681.282 50.1409 681.282 49.8677 684.254 46.5703Z"/>
<path d="M767.167 18.7976V12.4248V6.05201H797.083H827V12.4248V18.7976H815.215H803.429V30.0611C803.429 38.8464 804.232 42.1822 807.085 45.2302L810.738 49.1358L807.085 52.457C803.917 55.3357 803.429 58.0469 803.429 72.7935V89.8088H797.99H792.551V73.083C792.551 58.8225 792.012 55.7835 788.895 52.4514L785.242 48.5459L788.895 45.2246C791.829 42.559 792.551 39.6203 792.551 30.3506V18.7976H779.859H767.167Z"/>
</mask>
<path d="M110.813 30.3032C110.813 20.733 111.217 19.8355 118.519 13.2023C126.013 6.39433 126.606 6.19952 140.021 6.12669C153.65 6.05386 153.922 6.14299 162.328 13.5737C169.896 20.2651 170.777 21.8256 170.289 27.6849C169.792 33.6517 169.183 34.329 163.847 34.8443C158.778 35.3359 157.955 34.8443 157.955 31.321C157.955 29.0687 156.181 25.3289 154.013 23.011C150.891 19.6753 148.146 18.7976 140.817 18.7976C135.377 18.7976 129.904 19.9648 127.536 21.6326C122.348 25.2797 122.308 32.7613 127.447 38.2546C130.788 41.8252 133.209 42.4716 143.312 42.488C154.771 42.5062 155.536 42.7958 162.941 49.9078C170.126 56.8087 170.646 57.9649 170.646 67.0434C170.646 76.2184 170.21 77.1543 163.068 83.294C155.568 89.7397 155.315 89.8089 139.044 89.7597C122.798 89.7105 122.517 89.634 115.799 83.3614C110.137 78.0756 109 75.8014 109 69.7564C109 62.6734 109.154 62.4968 115.346 62.4968C120.662 62.4968 121.692 63.1414 121.692 66.4771C121.692 68.6657 123.465 72.3528 125.634 74.6707C128.774 78.0246 131.496 78.8841 138.987 78.8841C156.033 78.8841 163.693 67.3948 152.968 57.9157C148.922 54.3378 145.97 53.4966 137.29 53.4511C127.759 53.3983 125.742 52.6882 118.706 46.898C111.116 40.6527 110.813 40.0153 110.813 30.3032Z" fill="#EEEADD" fill-opacity="0.37"/>
<path d="M199.466 45.8055C202.944 43.626 203.283 41.7506 203.283 24.7316V6.05201H209.629H215.975V42.468V78.8841H235.013H254.051V84.3465V89.8088H228.667H203.283V73.083C203.283 58.5876 202.775 55.8145 199.466 52.2785L195.65 48.1999L199.466 45.8055Z" fill="#EEEADD" fill-opacity="0.37"/>
<path d="M283.061 32.0093C283.061 21.1082 283.198 20.806 291.475 13.49L299.89 6.05201H315.086H330.284L338.401 13.5665C346.297 20.8752 346.52 21.385 346.52 32.0877C346.52 39.9626 347.412 44.0812 349.655 46.5703C352.627 49.8677 352.627 50.1409 349.655 51.8124C347.198 53.1926 346.52 56.0694 346.52 65.106C346.52 76.253 346.277 76.8611 339.262 83.2248C332.017 89.7979 331.975 89.8088 315.111 89.8088C298.356 89.8088 298.157 89.756 290.639 83.294C283.231 76.9267 283.061 76.5206 283.061 65.3099C283.061 57.2492 282.237 53.1525 280.296 51.5338C277.817 49.469 277.817 48.9101 280.296 46.1606C282.136 44.1177 283.061 39.3872 283.061 32.0093Z" fill="#EEEADD" fill-opacity="0.37"/>
<path d="M376.593 45.9785C379.862 43.2546 379.552 41.0368 372.994 20.1632L368.559 6.05201H375.541C382.491 6.05201 382.54 6.10478 385.497 16.5216C396.167 54.1229 401.534 71.5844 402.212 70.9053C402.638 70.4755 405.808 57.1419 409.251 41.2736C417.535 3.12051 416.28 6.05201 424.314 6.05201H431.152L438.138 38.8427C441.978 56.8778 445.675 71.0108 446.351 70.2516C447.028 69.4923 451.562 54.7421 456.43 37.4736L465.28 6.07742L472.08 6.06478C475.82 6.0575 478.864 6.66562 478.846 7.41761C478.83 8.1696 476.388 16.5089 473.419 25.9516C468.377 41.9965 468.221 43.3365 471.022 46.4465C474.31 50.0935 474.283 50.1663 468.609 53.127C465.83 54.5763 463.001 60.25 458.909 72.5877L453.132 90L445.66 89.4501L438.19 88.8984L431.455 60.0369C425.27 33.5278 422.641 25.0284 422.69 31.6944C422.701 33.1128 419.767 46.7688 416.17 62.0416L409.63 89.8088H401.899H394.169L389.114 72.6204C384.694 57.5879 383.41 55.1627 378.888 53.2818C372.985 50.8256 372.526 49.3688 376.593 45.9785Z" fill="#EEEADD" fill-opacity="0.37"/>
<path d="M500.636 30.4799C500.636 21.3923 501.146 20.267 508.342 13.4462C515.961 6.22494 516.206 6.1431 530.14 6.09758C544.182 6.05206 544.262 6.07928 552.441 13.6502C559.63 20.3052 560.584 22.0604 560.107 27.7613C559.616 33.6443 558.992 34.329 553.67 34.8443C548.36 35.3596 547.778 34.9372 547.778 30.5855C547.778 23.4334 541.312 18.9306 530.943 18.8577C519.886 18.7813 513.328 22.8543 513.328 29.7988C513.328 37.9123 520.628 42.468 533.624 42.468C543.365 42.468 545.12 43.0998 552.419 49.2268C560.207 55.7653 560.47 56.3206 560.47 66.3113C560.47 76.0508 560.056 77.014 553.212 83.2248C545.981 89.7851 545.894 89.8088 529.264 89.8088H512.574L505.699 83.0664C500.127 77.6022 498.823 75.0148 498.823 69.4104C498.823 62.7226 499.032 62.4968 505.169 62.4968C510.485 62.4968 511.515 63.1414 511.515 66.4771C511.515 68.6657 513.288 72.3528 515.457 74.6707C520.991 80.5846 537.425 80.734 543.582 74.9256C553.926 65.1661 544.781 53.3928 526.852 53.3928C517.821 53.3928 515.745 52.6408 508.647 46.8015C500.994 40.5015 500.636 39.7751 500.636 30.4799Z" fill="#EEEADD" fill-opacity="0.37"/>
<path d="M591.293 30.855C591.293 20.1377 591.523 19.6042 598.999 13.0074C606.605 6.29597 606.904 6.20675 622.116 6.20493C637.45 6.20129 637.568 6.23774 645.234 13.2023C652.764 20.0431 652.939 20.4673 652.939 31.8072C652.939 41.6341 653.525 43.779 656.756 45.8055L660.573 48.1999L656.756 52.2785C653.802 55.4357 652.939 58.6932 652.939 66.6865C652.939 76.2785 652.455 77.4656 646.14 83.3614C639.395 89.6595 639.205 89.7105 622.448 89.7597C606.021 89.807 605.357 89.645 598.457 83.8913C591.67 78.234 591.356 77.4984 591.326 67.1654C591.3 58.868 590.444 55.4521 587.638 52.4514L583.984 48.5459L587.638 45.2246C590.537 42.5899 591.293 39.6203 591.293 30.855Z" fill="#EEEADD" fill-opacity="0.37"/>
<path d="M684.254 46.5703C686.792 43.7535 687.389 39.5693 687.389 24.5714V6.05201H708.086H728.783L736.189 14.5023C742.356 21.5379 743.596 24.2382 743.596 30.6328C743.596 37.0129 742.356 39.7277 736.276 46.6649L728.955 55.0171L737.183 71.4661C741.707 80.5137 745.409 88.3413 745.409 88.862C745.409 89.3828 742.548 89.8088 739.05 89.8088C732.83 89.8088 732.51 89.4392 724.137 72.5112L715.581 55.2136H707.83H700.081V72.5112V89.8088H693.735H687.389V71.6918C687.389 56.4135 686.898 53.2982 684.254 51.8124C681.282 50.1409 681.282 49.8677 684.254 46.5703Z" fill="#EEEADD" fill-opacity="0.37"/>
<path d="M767.167 18.7976V12.4248V6.05201H797.083H827V12.4248V18.7976H815.215H803.429V30.0611C803.429 38.8464 804.232 42.1822 807.085 45.2302L810.738 49.1358L807.085 52.457C803.917 55.3357 803.429 58.0469 803.429 72.7935V89.8088H797.99H792.551V73.083C792.551 58.8225 792.012 55.7835 788.895 52.4514L785.242 48.5459L788.895 45.2246C791.829 42.559 792.551 39.6203 792.551 30.3506V18.7976H779.859H767.167Z" fill="#EEEADD" fill-opacity="0.37"/>
<path d="M110.813 30.3032C110.813 20.733 111.217 19.8355 118.519 13.2023C126.013 6.39433 126.606 6.19952 140.021 6.12669C153.65 6.05386 153.922 6.14299 162.328 13.5737C169.896 20.2651 170.777 21.8256 170.289 27.6849C169.792 33.6517 169.183 34.329 163.847 34.8443C158.778 35.3359 157.955 34.8443 157.955 31.321C157.955 29.0687 156.181 25.3289 154.013 23.011C150.891 19.6753 148.146 18.7976 140.817 18.7976C135.377 18.7976 129.904 19.9648 127.536 21.6326C122.348 25.2797 122.308 32.7613 127.447 38.2546C130.788 41.8252 133.209 42.4716 143.312 42.488C154.771 42.5062 155.536 42.7958 162.941 49.9078C170.126 56.8087 170.646 57.9649 170.646 67.0434C170.646 76.2184 170.21 77.1543 163.068 83.294C155.568 89.7397 155.315 89.8089 139.044 89.7597C122.798 89.7105 122.517 89.634 115.799 83.3614C110.137 78.0756 109 75.8014 109 69.7564C109 62.6734 109.154 62.4968 115.346 62.4968C120.662 62.4968 121.692 63.1414 121.692 66.4771C121.692 68.6657 123.465 72.3528 125.634 74.6707C128.774 78.0246 131.496 78.8841 138.987 78.8841C156.033 78.8841 163.693 67.3948 152.968 57.9157C148.922 54.3378 145.97 53.4966 137.29 53.4511C127.759 53.3983 125.742 52.6882 118.706 46.898C111.116 40.6527 110.813 40.0153 110.813 30.3032Z" stroke="black" stroke-width="6" mask="url(#path-2-inside-1_7_7)"/>
<path d="M199.466 45.8055C202.944 43.626 203.283 41.7506 203.283 24.7316V6.05201H209.629H215.975V42.468V78.8841H235.013H254.051V84.3465V89.8088H228.667H203.283V73.083C203.283 58.5876 202.775 55.8145 199.466 52.2785L195.65 48.1999L199.466 45.8055Z" stroke="black" stroke-width="6" mask="url(#path-2-inside-1_7_7)"/>
<path d="M283.061 32.0093C283.061 21.1082 283.198 20.806 291.475 13.49L299.89 6.05201H315.086H330.284L338.401 13.5665C346.297 20.8752 346.52 21.385 346.52 32.0877C346.52 39.9626 347.412 44.0812 349.655 46.5703C352.627 49.8677 352.627 50.1409 349.655 51.8124C347.198 53.1926 346.52 56.0694 346.52 65.106C346.52 76.253 346.277 76.8611 339.262 83.2248C332.017 89.7979 331.975 89.8088 315.111 89.8088C298.356 89.8088 298.157 89.756 290.639 83.294C283.231 76.9267 283.061 76.5206 283.061 65.3099C283.061 57.2492 282.237 53.1525 280.296 51.5338C277.817 49.469 277.817 48.9101 280.296 46.1606C282.136 44.1177 283.061 39.3872 283.061 32.0093Z" stroke="black" stroke-width="6" mask="url(#path-2-inside-1_7_7)"/>
<path d="M376.593 45.9785C379.862 43.2546 379.552 41.0368 372.994 20.1632L368.559 6.05201H375.541C382.491 6.05201 382.54 6.10478 385.497 16.5216C396.167 54.1229 401.534 71.5844 402.212 70.9053C402.638 70.4755 405.808 57.1419 409.251 41.2736C417.535 3.12051 416.28 6.05201 424.314 6.05201H431.152L438.138 38.8427C441.978 56.8778 445.675 71.0108 446.351 70.2516C447.028 69.4923 451.562 54.7421 456.43 37.4736L465.28 6.07742L472.08 6.06478C475.82 6.0575 478.864 6.66562 478.846 7.41761C478.83 8.1696 476.388 16.5089 473.419 25.9516C468.377 41.9965 468.221 43.3365 471.022 46.4465C474.31 50.0935 474.283 50.1663 468.609 53.127C465.83 54.5763 463.001 60.25 458.909 72.5877L453.132 90L445.66 89.4501L438.19 88.8984L431.455 60.0369C425.27 33.5278 422.641 25.0284 422.69 31.6944C422.701 33.1128 419.767 46.7688 416.17 62.0416L409.63 89.8088H401.899H394.169L389.114 72.6204C384.694 57.5879 383.41 55.1627 378.888 53.2818C372.985 50.8256 372.526 49.3688 376.593 45.9785Z" stroke="black" stroke-width="6" mask="url(#path-2-inside-1_7_7)"/>
<path d="M500.636 30.4799C500.636 21.3923 501.146 20.267 508.342 13.4462C515.961 6.22494 516.206 6.1431 530.14 6.09758C544.182 6.05206 544.262 6.07928 552.441 13.6502C559.63 20.3052 560.584 22.0604 560.107 27.7613C559.616 33.6443 558.992 34.329 553.67 34.8443C548.36 35.3596 547.778 34.9372 547.778 30.5855C547.778 23.4334 541.312 18.9306 530.943 18.8577C519.886 18.7813 513.328 22.8543 513.328 29.7988C513.328 37.9123 520.628 42.468 533.624 42.468C543.365 42.468 545.12 43.0998 552.419 49.2268C560.207 55.7653 560.47 56.3206 560.47 66.3113C560.47 76.0508 560.056 77.014 553.212 83.2248C545.981 89.7851 545.894 89.8088 529.264 89.8088H512.574L505.699 83.0664C500.127 77.6022 498.823 75.0148 498.823 69.4104C498.823 62.7226 499.032 62.4968 505.169 62.4968C510.485 62.4968 511.515 63.1414 511.515 66.4771C511.515 68.6657 513.288 72.3528 515.457 74.6707C520.991 80.5846 537.425 80.734 543.582 74.9256C553.926 65.1661 544.781 53.3928 526.852 53.3928C517.821 53.3928 515.745 52.6408 508.647 46.8015C500.994 40.5015 500.636 39.7751 500.636 30.4799Z" stroke="black" stroke-width="6" mask="url(#path-2-inside-1_7_7)"/>
<path d="M591.293 30.855C591.293 20.1377 591.523 19.6042 598.999 13.0074C606.605 6.29597 606.904 6.20675 622.116 6.20493C637.45 6.20129 637.568 6.23774 645.234 13.2023C652.764 20.0431 652.939 20.4673 652.939 31.8072C652.939 41.6341 653.525 43.779 656.756 45.8055L660.573 48.1999L656.756 52.2785C653.802 55.4357 652.939 58.6932 652.939 66.6865C652.939 76.2785 652.455 77.4656 646.14 83.3614C639.395 89.6595 639.205 89.7105 622.448 89.7597C606.021 89.807 605.357 89.645 598.457 83.8913C591.67 78.234 591.356 77.4984 591.326 67.1654C591.3 58.868 590.444 55.4521 587.638 52.4514L583.984 48.5459L587.638 45.2246C590.537 42.5899 591.293 39.6203 591.293 30.855Z" stroke="black" stroke-width="6" mask="url(#path-2-inside-1_7_7)"/>
<path d="M684.254 46.5703C686.792 43.7535 687.389 39.5693 687.389 24.5714V6.05201H708.086H728.783L736.189 14.5023C742.356 21.5379 743.596 24.2382 743.596 30.6328C743.596 37.0129 742.356 39.7277 736.276 46.6649L728.955 55.0171L737.183 71.4661C741.707 80.5137 745.409 88.3413 745.409 88.862C745.409 89.3828 742.548 89.8088 739.05 89.8088C732.83 89.8088 732.51 89.4392 724.137 72.5112L715.581 55.2136H707.83H700.081V72.5112V89.8088H693.735H687.389V71.6918C687.389 56.4135 686.898 53.2982 684.254 51.8124C681.282 50.1409 681.282 49.8677 684.254 46.5703Z" stroke="black" stroke-width="6" mask="url(#path-2-inside-1_7_7)"/>
<path d="M767.167 18.7976V12.4248V6.05201H797.083H827V12.4248V18.7976H815.215H803.429V30.0611C803.429 38.8464 804.232 42.1822 807.085 45.2302L810.738 49.1358L807.085 52.457C803.917 55.3357 803.429 58.0469 803.429 72.7935V89.8088H797.99H792.551V73.083C792.551 58.8225 792.012 55.7835 788.895 52.4514L785.242 48.5459L788.895 45.2246C791.829 42.559 792.551 39.6203 792.551 30.3506V18.7976H779.859H767.167Z" stroke="black" stroke-width="6" mask="url(#path-2-inside-1_7_7)"/>
</svg>
