<svg width="338" height="324" viewBox="0 0 338 324" fill="none" xmlns="http://www.w3.org/2000/svg">
<mask id="path-1-inside-1_2_5" fill="white">
<path fill-rule="evenodd" clip-rule="evenodd" d="M170.769 1.25944C154.081 5.76479 140.518 19.3288 136.126 35.9041C135.44 38.4928 134.872 41.7689 134.865 43.1833C134.852 45.5457 134.253 46.0617 127.507 49.5213C112.936 56.9959 99.71 68.6441 89.6178 82.893C83.3699 91.7143 77.7255 102.854 77.0887 107.619C76.1507 114.646 80.8802 119.901 88.1438 119.901C93.5526 119.901 95.6438 117.852 100.627 107.669C105.568 97.5714 113.895 86.6501 121.52 80.2641C127.697 75.0919 136.363 69.3273 137.961 69.3273C138.583 69.3273 139.922 70.9671 140.936 72.9703C143.914 78.8523 154.841 89.0708 161.665 92.3546C169.734 96.2377 178.032 97.9023 186.294 97.2954C221.728 94.6938 242.501 56.8733 225.902 25.1825C220.152 14.2054 207.526 4.38301 195.067 1.19687C188.729 -0.424058 176.892 -0.394059 170.769 1.25944ZM250.341 82.1507C244.094 85.9755 243.569 92.1866 248.742 101.051C256.813 114.879 259.561 124.573 260.041 140.902C260.457 155.025 259.686 161.695 257.706 161.12C254.466 160.181 238.779 160.11 234.433 161.017C218.424 164.354 203.397 178.625 198.374 195.259C191.371 218.453 204.268 244.935 227.04 254.121C258.653 266.873 293.616 243.274 293.616 209.183C293.616 197.016 290.648 188.271 283.137 178.304L279.016 172.837L280.46 166.727C282.384 158.58 283.066 137.275 281.68 128.642C281.1 125.029 279.907 119.319 279.028 115.95C275.585 102.752 266.555 85.0737 261.752 82.1327C258.293 80.0155 253.817 80.0215 250.341 82.1507ZM82.1152 139.236C67.0332 143.313 54.1338 155.145 48.7138 169.871C46.2667 176.52 45.3748 189.849 46.9052 196.914C50.9194 215.448 66.2309 230.386 85.3535 234.425C92.9952 236.038 102.026 235.494 109.486 232.97L114.476 231.281L121.467 235.515C137.753 245.379 162.383 252.241 176.316 250.797C181.87 250.221 184.072 248.892 186.142 244.869C188.132 241.001 188.193 238.901 186.424 235.158C184.301 230.664 181.79 229.555 171.684 228.644C161.116 227.691 149.557 224.826 141.687 221.208C132.695 217.074 132.719 217.113 136.065 211.825C140.691 204.515 142.961 196.259 142.958 186.761C142.956 182.282 142.416 176.689 141.758 174.332C137.006 157.323 123.331 143.623 106.653 139.166C100.788 137.599 88.0379 137.635 82.1152 139.236ZM4.48106 287.846C1.04387 290.969 0.853535 291.391 0.853535 295.896C0.853535 300.469 0.996073 300.769 4.56897 303.709C7.88154 306.435 8.83067 306.769 13.3177 306.794C17.4036 306.815 18.7931 307.211 20.6982 308.896C25.7469 313.358 22.1407 318.767 14.1166 318.767C10.5898 318.767 9.30867 318.362 7.83034 316.783C6.80951 315.692 5.97475 313.956 5.97475 312.926C5.97475 311.356 5.48994 311.052 2.98737 311.052C0.0725505 311.052 0 311.135 0 314.47C0 317.316 0.535167 318.386 3.20076 320.875C6.36311 323.828 6.49541 323.864 14.1431 323.887C21.8027 323.91 21.9222 323.877 25.4524 320.843C28.8145 317.953 29.0202 317.512 29.0202 313.193C29.0202 308.919 28.7752 308.374 25.3927 305.126C21.9068 301.778 21.5467 301.641 16.1523 301.633C11.3964 301.625 10.2569 301.321 8.68388 299.64C6.26496 297.054 6.28372 293.532 8.72569 291.815C9.8404 291.029 12.4172 290.48 14.9778 290.48C18.4278 290.48 19.7201 290.893 21.1899 292.463C22.2107 293.555 23.0455 295.315 23.0455 296.376C23.0455 298.034 23.433 298.266 25.8194 298.034C28.3314 297.792 28.6182 297.473 28.8521 294.664C29.0817 291.905 28.6668 291.171 25.1042 288.021C21.1472 284.523 21.0192 284.481 14.6031 284.515C8.28784 284.549 8.00872 284.641 4.48106 287.846ZM44.3838 293.273C44.3838 301.286 44.2242 302.168 42.5871 303.195L40.7905 304.322L42.5871 306.242C44.1448 307.906 44.3838 309.212 44.3838 316.036V323.91H56.3333H68.2828V321.338V318.767H59.3207H50.3586V301.623V284.48H47.3712H44.3838V293.273ZM85.9006 287.981C82.0043 291.425 81.9394 291.568 81.9394 296.7C81.9394 300.173 81.5041 302.4 80.6378 303.362C79.471 304.656 79.471 304.919 80.6378 305.891C81.5519 306.653 81.9394 308.582 81.9394 312.377C81.9394 317.654 82.0196 317.845 85.5072 320.843C89.0459 323.885 89.1398 323.91 97.0273 323.91C104.966 323.91 104.986 323.905 108.396 320.81C111.699 317.815 111.813 317.528 111.813 312.281C111.813 308.026 112.132 306.672 113.289 306.022C114.688 305.235 114.688 305.107 113.289 303.555C112.233 302.383 111.813 300.444 111.813 296.737C111.813 291.698 111.708 291.458 107.991 288.017L104.17 284.48H97.0154H89.8619L85.9006 287.981ZM124.276 291.123C127.363 300.95 127.509 301.994 125.97 303.276C124.055 304.872 124.271 305.558 127.05 306.714C129.179 307.6 129.783 308.741 131.864 315.818L134.244 323.91H137.883H141.522L144.601 310.838C146.294 303.648 147.675 297.219 147.67 296.551C147.647 293.413 148.885 297.415 151.796 309.894L154.967 323.481L158.484 323.741L162.001 324L164.72 315.803C166.647 309.995 167.978 307.324 169.287 306.641C171.957 305.247 171.97 305.213 170.423 303.496C169.104 302.032 169.178 301.401 171.551 293.848C172.948 289.402 174.098 285.477 174.106 285.123C174.114 284.769 172.681 284.482 170.92 284.486L167.72 284.492L163.554 299.272C161.262 307.402 159.127 314.346 158.809 314.703C158.49 315.06 156.75 308.407 154.942 299.917L151.654 284.48H148.435C144.653 284.48 145.244 283.1 141.344 301.061C139.723 308.531 138.231 314.808 138.03 315.011C137.711 315.33 135.185 307.11 130.162 289.408C128.769 284.505 128.746 284.48 125.475 284.48H122.188L124.276 291.123ZM187.991 287.961C184.603 291.172 184.364 291.701 184.364 295.98C184.364 300.356 184.532 300.698 188.135 303.663C191.476 306.412 192.453 306.766 196.705 306.766C205.145 306.766 209.45 312.309 204.58 316.903C201.682 319.638 193.945 319.568 191.34 316.783C190.32 315.692 189.485 313.956 189.485 312.926C189.485 311.356 189 311.052 186.497 311.052C183.608 311.052 183.51 311.159 183.51 314.307C183.51 316.945 184.124 318.163 186.747 320.736L189.983 323.91H197.84C205.669 323.91 205.71 323.899 209.114 320.81C212.336 317.887 212.53 317.433 212.53 312.848C212.53 308.145 212.407 307.883 208.741 304.805C205.304 301.921 204.478 301.623 199.893 301.623C193.775 301.623 190.338 299.479 190.338 295.659C190.338 292.39 193.426 290.472 198.631 290.508C203.512 290.543 206.556 292.662 206.556 296.029C206.556 298.078 206.83 298.277 209.33 298.034C211.835 297.792 212.128 297.469 212.36 294.7C212.584 292.016 212.135 291.19 208.751 288.057C204.901 284.493 204.863 284.48 198.252 284.501C191.693 284.523 191.578 284.561 187.991 287.961ZM230.668 287.754C227.149 290.86 227.04 291.111 227.04 296.156C227.04 300.283 226.684 301.681 225.32 302.921L223.6 304.485L225.32 306.323C226.641 307.736 227.044 309.344 227.056 313.25C227.07 318.115 227.218 318.461 230.413 321.124C233.661 323.833 233.974 323.909 241.707 323.887C249.595 323.864 249.685 323.84 252.86 320.875C255.833 318.099 256.061 317.54 256.061 313.025C256.061 309.262 256.467 307.728 257.857 306.242L259.654 304.322L257.857 303.195C256.336 302.24 256.061 301.231 256.061 296.605C256.061 291.266 255.978 291.066 252.433 287.846C248.824 284.567 248.769 284.55 241.551 284.552C234.389 284.553 234.249 284.595 230.668 287.754ZM272.278 293.198C272.278 300.259 271.997 302.228 270.802 303.555C269.403 305.107 269.403 305.235 270.802 306.022C272.046 306.722 272.278 308.188 272.278 315.381V323.91H275.265H278.253V315.767V307.624H281.901H285.549L289.577 315.767C293.519 323.736 293.669 323.91 296.598 323.91C298.244 323.91 299.591 323.709 299.591 323.464C299.591 323.219 297.848 319.534 295.718 315.275L291.845 307.531L295.292 303.599C298.154 300.333 298.737 299.055 298.737 296.052C298.737 293.041 298.154 291.77 295.251 288.458L291.764 284.48H282.021H272.278V293.198ZM309.833 287.48V290.48H315.808H321.783V295.919C321.783 300.283 321.443 301.666 320.062 302.921L318.342 304.485L320.062 306.323C321.529 307.892 321.783 309.323 321.783 316.036V323.91H324.343H326.904V315.9C326.904 308.957 327.134 307.681 328.625 306.326L330.345 304.762L328.625 302.924C327.282 301.489 326.904 299.918 326.904 295.782V290.48H332.452H338V287.48V284.48H323.917H309.833V287.48ZM103.863 292.343C105.715 294.091 105.838 294.85 105.838 304.503C105.838 313.895 105.675 314.973 103.983 316.783C101.432 319.51 93.5031 319.628 90.1632 316.99C87.9543 315.246 87.9141 315.027 87.9141 304.831C87.9141 295.35 88.0755 294.276 89.7697 292.463C92.3978 289.655 100.936 289.582 103.863 292.343ZM248.165 292.146C249.966 293.654 250.086 294.414 250.086 304.277C250.086 313.901 249.927 314.969 248.23 316.783C245.784 319.398 237.902 319.586 234.936 317.101C233.125 315.584 233.015 314.856 233.015 304.377C233.015 293.819 233.112 293.193 234.936 291.915C237.739 289.951 245.711 290.09 248.165 292.146ZM290.788 292.343C293.26 294.677 293.299 297.081 290.907 299.64C289.346 301.308 288.192 301.623 283.652 301.623H278.253V296.052V290.48H283.532C287.778 290.48 289.198 290.845 290.788 292.343Z"/>
</mask>
<path fill-rule="evenodd" clip-rule="evenodd" d="M170.769 1.25944C154.081 5.76479 140.518 19.3288 136.126 35.9041C135.44 38.4928 134.872 41.7689 134.865 43.1833C134.852 45.5457 134.253 46.0617 127.507 49.5213C112.936 56.9959 99.71 68.6441 89.6178 82.893C83.3699 91.7143 77.7255 102.854 77.0887 107.619C76.1507 114.646 80.8802 119.901 88.1438 119.901C93.5526 119.901 95.6438 117.852 100.627 107.669C105.568 97.5714 113.895 86.6501 121.52 80.2641C127.697 75.0919 136.363 69.3273 137.961 69.3273C138.583 69.3273 139.922 70.9671 140.936 72.9703C143.914 78.8523 154.841 89.0708 161.665 92.3546C169.734 96.2377 178.032 97.9023 186.294 97.2954C221.728 94.6938 242.501 56.8733 225.902 25.1825C220.152 14.2054 207.526 4.38301 195.067 1.19687C188.729 -0.424058 176.892 -0.394059 170.769 1.25944ZM250.341 82.1507C244.094 85.9755 243.569 92.1866 248.742 101.051C256.813 114.879 259.561 124.573 260.041 140.902C260.457 155.025 259.686 161.695 257.706 161.12C254.466 160.181 238.779 160.11 234.433 161.017C218.424 164.354 203.397 178.625 198.374 195.259C191.371 218.453 204.268 244.935 227.04 254.121C258.653 266.873 293.616 243.274 293.616 209.183C293.616 197.016 290.648 188.271 283.137 178.304L279.016 172.837L280.46 166.727C282.384 158.58 283.066 137.275 281.68 128.642C281.1 125.029 279.907 119.319 279.028 115.95C275.585 102.752 266.555 85.0737 261.752 82.1327C258.293 80.0155 253.817 80.0215 250.341 82.1507ZM82.1152 139.236C67.0332 143.313 54.1338 155.145 48.7138 169.871C46.2667 176.52 45.3748 189.849 46.9052 196.914C50.9194 215.448 66.2309 230.386 85.3535 234.425C92.9952 236.038 102.026 235.494 109.486 232.97L114.476 231.281L121.467 235.515C137.753 245.379 162.383 252.241 176.316 250.797C181.87 250.221 184.072 248.892 186.142 244.869C188.132 241.001 188.193 238.901 186.424 235.158C184.301 230.664 181.79 229.555 171.684 228.644C161.116 227.691 149.557 224.826 141.687 221.208C132.695 217.074 132.719 217.113 136.065 211.825C140.691 204.515 142.961 196.259 142.958 186.761C142.956 182.282 142.416 176.689 141.758 174.332C137.006 157.323 123.331 143.623 106.653 139.166C100.788 137.599 88.0379 137.635 82.1152 139.236ZM4.48106 287.846C1.04387 290.969 0.853535 291.391 0.853535 295.896C0.853535 300.469 0.996073 300.769 4.56897 303.709C7.88154 306.435 8.83067 306.769 13.3177 306.794C17.4036 306.815 18.7931 307.211 20.6982 308.896C25.7469 313.358 22.1407 318.767 14.1166 318.767C10.5898 318.767 9.30867 318.362 7.83034 316.783C6.80951 315.692 5.97475 313.956 5.97475 312.926C5.97475 311.356 5.48994 311.052 2.98737 311.052C0.0725505 311.052 0 311.135 0 314.47C0 317.316 0.535167 318.386 3.20076 320.875C6.36311 323.828 6.49541 323.864 14.1431 323.887C21.8027 323.91 21.9222 323.877 25.4524 320.843C28.8145 317.953 29.0202 317.512 29.0202 313.193C29.0202 308.919 28.7752 308.374 25.3927 305.126C21.9068 301.778 21.5467 301.641 16.1523 301.633C11.3964 301.625 10.2569 301.321 8.68388 299.64C6.26496 297.054 6.28372 293.532 8.72569 291.815C9.8404 291.029 12.4172 290.48 14.9778 290.48C18.4278 290.48 19.7201 290.893 21.1899 292.463C22.2107 293.555 23.0455 295.315 23.0455 296.376C23.0455 298.034 23.433 298.266 25.8194 298.034C28.3314 297.792 28.6182 297.473 28.8521 294.664C29.0817 291.905 28.6668 291.171 25.1042 288.021C21.1472 284.523 21.0192 284.481 14.6031 284.515C8.28784 284.549 8.00872 284.641 4.48106 287.846ZM44.3838 293.273C44.3838 301.286 44.2242 302.168 42.5871 303.195L40.7905 304.322L42.5871 306.242C44.1448 307.906 44.3838 309.212 44.3838 316.036V323.91H56.3333H68.2828V321.338V318.767H59.3207H50.3586V301.623V284.48H47.3712H44.3838V293.273ZM85.9006 287.981C82.0043 291.425 81.9394 291.568 81.9394 296.7C81.9394 300.173 81.5041 302.4 80.6378 303.362C79.471 304.656 79.471 304.919 80.6378 305.891C81.5519 306.653 81.9394 308.582 81.9394 312.377C81.9394 317.654 82.0196 317.845 85.5072 320.843C89.0459 323.885 89.1398 323.91 97.0273 323.91C104.966 323.91 104.986 323.905 108.396 320.81C111.699 317.815 111.813 317.528 111.813 312.281C111.813 308.026 112.132 306.672 113.289 306.022C114.688 305.235 114.688 305.107 113.289 303.555C112.233 302.383 111.813 300.444 111.813 296.737C111.813 291.698 111.708 291.458 107.991 288.017L104.17 284.48H97.0154H89.8619L85.9006 287.981ZM124.276 291.123C127.363 300.95 127.509 301.994 125.97 303.276C124.055 304.872 124.271 305.558 127.05 306.714C129.179 307.6 129.783 308.741 131.864 315.818L134.244 323.91H137.883H141.522L144.601 310.838C146.294 303.648 147.675 297.219 147.67 296.551C147.647 293.413 148.885 297.415 151.796 309.894L154.967 323.481L158.484 323.741L162.001 324L164.72 315.803C166.647 309.995 167.978 307.324 169.287 306.641C171.957 305.247 171.97 305.213 170.423 303.496C169.104 302.032 169.178 301.401 171.551 293.848C172.948 289.402 174.098 285.477 174.106 285.123C174.114 284.769 172.681 284.482 170.92 284.486L167.72 284.492L163.554 299.272C161.262 307.402 159.127 314.346 158.809 314.703C158.49 315.06 156.75 308.407 154.942 299.917L151.654 284.48H148.435C144.653 284.48 145.244 283.1 141.344 301.061C139.723 308.531 138.231 314.808 138.03 315.011C137.711 315.33 135.185 307.11 130.162 289.408C128.769 284.505 128.746 284.48 125.475 284.48H122.188L124.276 291.123ZM187.991 287.961C184.603 291.172 184.364 291.701 184.364 295.98C184.364 300.356 184.532 300.698 188.135 303.663C191.476 306.412 192.453 306.766 196.705 306.766C205.145 306.766 209.45 312.309 204.58 316.903C201.682 319.638 193.945 319.568 191.34 316.783C190.32 315.692 189.485 313.956 189.485 312.926C189.485 311.356 189 311.052 186.497 311.052C183.608 311.052 183.51 311.159 183.51 314.307C183.51 316.945 184.124 318.163 186.747 320.736L189.983 323.91H197.84C205.669 323.91 205.71 323.899 209.114 320.81C212.336 317.887 212.53 317.433 212.53 312.848C212.53 308.145 212.407 307.883 208.741 304.805C205.304 301.921 204.478 301.623 199.893 301.623C193.775 301.623 190.338 299.479 190.338 295.659C190.338 292.39 193.426 290.472 198.631 290.508C203.512 290.543 206.556 292.662 206.556 296.029C206.556 298.078 206.83 298.277 209.33 298.034C211.835 297.792 212.128 297.469 212.36 294.7C212.584 292.016 212.135 291.19 208.751 288.057C204.901 284.493 204.863 284.48 198.252 284.501C191.693 284.523 191.578 284.561 187.991 287.961ZM230.668 287.754C227.149 290.86 227.04 291.111 227.04 296.156C227.04 300.283 226.684 301.681 225.32 302.921L223.6 304.485L225.32 306.323C226.641 307.736 227.044 309.344 227.056 313.25C227.07 318.115 227.218 318.461 230.413 321.124C233.661 323.833 233.974 323.909 241.707 323.887C249.595 323.864 249.685 323.84 252.86 320.875C255.833 318.099 256.061 317.54 256.061 313.025C256.061 309.262 256.467 307.728 257.857 306.242L259.654 304.322L257.857 303.195C256.336 302.24 256.061 301.231 256.061 296.605C256.061 291.266 255.978 291.066 252.433 287.846C248.824 284.567 248.769 284.55 241.551 284.552C234.389 284.553 234.249 284.595 230.668 287.754ZM272.278 293.198C272.278 300.259 271.997 302.228 270.802 303.555C269.403 305.107 269.403 305.235 270.802 306.022C272.046 306.722 272.278 308.188 272.278 315.381V323.91H275.265H278.253V315.767V307.624H281.901H285.549L289.577 315.767C293.519 323.736 293.669 323.91 296.598 323.91C298.244 323.91 299.591 323.709 299.591 323.464C299.591 323.219 297.848 319.534 295.718 315.275L291.845 307.531L295.292 303.599C298.154 300.333 298.737 299.055 298.737 296.052C298.737 293.041 298.154 291.77 295.251 288.458L291.764 284.48H282.021H272.278V293.198ZM309.833 287.48V290.48H315.808H321.783V295.919C321.783 300.283 321.443 301.666 320.062 302.921L318.342 304.485L320.062 306.323C321.529 307.892 321.783 309.323 321.783 316.036V323.91H324.343H326.904V315.9C326.904 308.957 327.134 307.681 328.625 306.326L330.345 304.762L328.625 302.924C327.282 301.489 326.904 299.918 326.904 295.782V290.48H332.452H338V287.48V284.48H323.917H309.833V287.48ZM103.863 292.343C105.715 294.091 105.838 294.85 105.838 304.503C105.838 313.895 105.675 314.973 103.983 316.783C101.432 319.51 93.5031 319.628 90.1632 316.99C87.9543 315.246 87.9141 315.027 87.9141 304.831C87.9141 295.35 88.0755 294.276 89.7697 292.463C92.3978 289.655 100.936 289.582 103.863 292.343ZM248.165 292.146C249.966 293.654 250.086 294.414 250.086 304.277C250.086 313.901 249.927 314.969 248.23 316.783C245.784 319.398 237.902 319.586 234.936 317.101C233.125 315.584 233.015 314.856 233.015 304.377C233.015 293.819 233.112 293.193 234.936 291.915C237.739 289.951 245.711 290.09 248.165 292.146ZM290.788 292.343C293.26 294.677 293.299 297.081 290.907 299.64C289.346 301.308 288.192 301.623 283.652 301.623H278.253V296.052V290.48H283.532C287.778 290.48 289.198 290.845 290.788 292.343Z" fill="#EEEADD" fill-opacity="0.37" stroke="black" stroke-width="6" mask="url(#path-1-inside-1_2_5)"/>
</svg>
