<svg width="212" height="203" viewBox="0 0 212 203" fill="none" xmlns="http://www.w3.org/2000/svg">
<path fill-rule="evenodd" clip-rule="evenodd" d="M107.109 0.789096C96.6426 3.61189 88.1358 12.1103 85.3809 22.4955C84.9504 24.1174 84.5944 26.17 84.5896 27.0562C84.5816 28.5363 84.2058 28.8596 79.9749 31.0272C70.8353 35.7104 62.54 43.0085 56.21 51.9361C52.2912 57.463 48.7509 64.4426 48.3515 67.4281C47.7632 71.831 50.7296 75.1231 55.2854 75.1231C58.678 75.1231 59.9896 73.8396 63.115 67.4593C66.2141 61.1327 71.437 54.29 76.2199 50.2889C80.0937 47.0483 85.5292 43.4366 86.5319 43.4366C86.9216 43.4366 87.7616 44.464 88.3976 45.7191C90.2654 49.4044 97.119 55.8067 101.399 57.8642C106.46 60.297 111.665 61.34 116.847 60.9598C139.072 59.3298 152.101 35.6336 141.69 15.7779C138.084 8.90032 130.164 2.74615 122.35 0.749891C118.374 -0.265691 110.95 -0.246895 107.109 0.789096ZM157.019 51.471C153.1 53.8673 152.771 57.7589 156.016 63.3126C161.078 71.9765 162.802 78.0507 163.103 88.2811C163.364 97.1297 162.88 101.309 161.638 100.949C159.606 100.36 149.767 100.316 147.041 100.884C137 102.975 127.575 111.916 124.424 122.338C120.032 136.87 128.121 153.462 142.404 159.218C162.232 167.208 184.162 152.422 184.162 131.062C184.162 123.439 182.3 117.96 177.589 111.715L175.004 108.29L175.91 104.462C177.117 99.3575 177.545 86.0088 176.675 80.5995C176.311 78.3364 175.563 74.7585 175.011 72.6478C172.852 64.3787 167.188 53.3024 164.176 51.4597C162.007 50.1332 159.199 50.1369 157.019 51.471ZM51.5042 87.2376C42.0445 89.7919 33.9537 97.2049 30.5542 106.432C29.0194 110.598 28.4599 118.948 29.4198 123.375C31.9376 134.988 41.5413 144.347 53.5354 146.877C58.3284 147.888 63.9924 147.547 68.6714 145.966L71.8016 144.908L76.1862 147.56C86.4012 153.74 101.85 158.04 110.589 157.135C114.072 156.774 115.453 155.942 116.752 153.421C118 150.997 118.038 149.682 116.929 147.336C115.597 144.521 114.022 143.826 107.684 143.255C101.055 142.659 93.8052 140.863 88.8687 138.596C83.2287 136.007 83.2437 136.031 85.3423 132.718C88.2439 128.137 89.668 122.965 89.6658 117.014C89.6648 114.208 89.3259 110.703 88.9131 109.227C85.9328 98.5696 77.3554 89.9863 66.8951 87.1936C63.2161 86.2118 55.219 86.2344 51.5042 87.2376ZM2.81061 180.348C0.654737 182.304 0.535354 182.569 0.535354 185.392C0.535354 188.257 0.624756 188.445 2.86575 190.287C4.94345 191.995 5.53877 192.204 8.35312 192.22C10.9159 192.233 11.7874 192.481 12.9823 193.536C16.1489 196.332 13.8871 199.721 8.85421 199.721C6.64213 199.721 5.83857 199.468 4.91134 198.478C4.27106 197.795 3.74747 196.707 3.74747 196.062C3.74747 195.078 3.44339 194.888 1.87374 194.888C0.0455051 194.888 0 194.94 0 197.029C0 198.812 0.335667 199.483 2.00758 201.042C3.99106 202.892 4.07404 202.915 8.87081 202.929C13.6751 202.944 13.75 202.923 15.9642 201.022C18.073 199.211 18.202 198.935 18.202 196.229C18.202 193.551 18.0484 193.21 15.9268 191.174C13.7404 189.077 13.5145 188.991 10.131 188.986C7.14805 188.981 6.43335 188.79 5.44669 187.737C3.9295 186.117 3.94127 183.91 5.47291 182.834C6.17209 182.343 7.78833 181.998 9.39439 181.998C11.5583 181.998 12.3688 182.257 13.2907 183.241C13.931 183.925 14.4545 185.028 14.4545 185.692C14.4545 186.731 14.6976 186.876 16.1944 186.731C17.77 186.579 17.9499 186.38 18.0966 184.62C18.2406 182.891 17.9804 182.431 15.7458 180.457C13.2639 178.266 13.1836 178.239 9.15937 178.261C5.19829 178.282 5.02322 178.34 2.81061 180.348ZM27.8384 183.749C27.8384 188.768 27.7383 189.322 26.7115 189.964L25.5846 190.671L26.7115 191.874C27.6885 192.917 27.8384 193.735 27.8384 198.01V202.944H35.3333H42.8283V201.332V199.721H37.2071H31.5859V188.98V178.239H29.7121H27.8384V183.749ZM53.8785 180.433C51.4346 182.591 51.3939 182.68 51.3939 185.895C51.3939 188.071 51.1209 189.467 50.5775 190.069C49.8457 190.88 49.8457 191.045 50.5775 191.654C51.1509 192.132 51.3939 193.34 51.3939 195.717C51.3939 199.024 51.4443 199.144 53.6317 201.022C55.8513 202.928 55.9102 202.944 60.8574 202.944C65.8367 202.944 65.849 202.94 67.9883 201.002C70.0596 199.125 70.1313 198.945 70.1313 195.657C70.1313 192.992 70.3315 192.143 71.0569 191.736C71.9344 191.243 71.9344 191.163 71.0569 190.19C70.3947 189.456 70.1313 188.241 70.1313 185.918C70.1313 182.761 70.0655 182.611 67.734 180.455L65.3372 178.239H60.8499H56.3631L53.8785 180.433ZM77.948 182.401C79.8844 188.558 79.9759 189.212 79.0107 190.015C77.8099 191.015 77.9453 191.445 79.6884 192.17C81.0236 192.724 81.4026 193.44 82.7078 197.874L84.2004 202.944H86.4826H88.7654L90.6964 194.753C91.7585 190.249 92.6247 186.221 92.6215 185.802C92.6071 183.836 93.3833 186.343 95.2094 194.162L97.1982 202.675L99.4039 202.838L101.61 203L103.316 197.864C104.524 194.225 105.359 192.551 106.18 192.124C107.855 191.251 107.863 191.229 106.892 190.154C106.065 189.236 106.111 188.841 107.6 184.108C108.477 181.323 109.198 178.863 109.202 178.642C109.208 178.42 108.309 178.24 107.205 178.243L105.197 178.246L102.584 187.507C101.146 192.6 99.8076 196.951 99.6079 197.175C99.4082 197.399 98.3166 193.23 97.1827 187.911L95.12 178.239H93.1012C90.729 178.239 91.0995 177.374 88.6535 188.628C87.6368 193.308 86.701 197.241 86.5752 197.368C86.375 197.568 84.7904 192.418 81.6398 181.327C80.7667 178.254 80.7522 178.239 78.7002 178.239H76.6385L77.948 182.401ZM117.912 180.42C115.787 182.432 115.636 182.764 115.636 185.444C115.636 188.186 115.742 188.4 118.002 190.258C120.097 191.981 120.71 192.202 123.377 192.202C128.671 192.202 131.371 195.675 128.317 198.554C126.499 200.267 121.646 200.223 120.012 198.478C119.372 197.795 118.848 196.707 118.848 196.062C118.848 195.078 118.544 194.888 116.975 194.888C115.163 194.888 115.101 194.954 115.101 196.927C115.101 198.58 115.486 199.343 117.131 200.955L119.161 202.944H124.089C128.999 202.944 129.025 202.937 131.16 201.002C133.181 199.17 133.303 198.886 133.303 196.013C133.303 193.066 133.225 192.902 130.926 190.974C128.771 189.166 128.252 188.98 125.377 188.98C121.539 188.98 119.384 187.636 119.384 185.243C119.384 183.195 121.32 181.993 124.585 182.016C127.647 182.037 129.556 183.366 129.556 185.475C129.556 186.759 129.727 186.883 131.295 186.731C132.867 186.579 133.051 186.377 133.196 184.642C133.337 182.961 133.055 182.443 130.932 180.48C128.518 178.247 128.494 178.239 124.348 178.252C120.233 178.266 120.161 178.29 117.912 180.42ZM144.679 180.29C142.472 182.236 142.404 182.394 142.404 185.555C142.404 188.14 142.181 189.016 141.325 189.793L140.246 190.773L141.325 191.925C142.154 192.81 142.406 193.817 142.414 196.265C142.423 199.313 142.515 199.53 144.519 201.198C146.557 202.895 146.753 202.943 151.603 202.929C156.551 202.915 156.607 202.9 158.598 201.042C160.463 199.303 160.606 198.953 160.606 196.123C160.606 193.766 160.861 192.805 161.733 191.874L162.86 190.671L161.733 189.964C160.779 189.367 160.606 188.734 160.606 185.836C160.606 182.491 160.554 182.366 158.331 180.348C156.067 178.294 156.033 178.283 151.505 178.284C147.013 178.284 146.925 178.311 144.679 180.29ZM170.778 183.701C170.778 188.125 170.602 189.359 169.852 190.19C168.975 191.163 168.975 191.243 169.852 191.736C170.633 192.174 170.778 193.093 170.778 197.6V202.944H172.652H174.525V197.842V192.739H176.813H179.102L181.628 197.842C184.101 202.835 184.195 202.944 186.032 202.944C187.064 202.944 187.909 202.818 187.909 202.664C187.909 202.511 186.816 200.202 185.48 197.533L183.051 192.681L185.213 190.218C187.008 188.172 187.374 187.371 187.374 185.489C187.374 183.603 187.008 182.807 185.187 180.731L183 178.239H176.889H170.778V183.701ZM194.333 180.119V181.998H198.081H201.828V185.406C201.828 188.14 201.615 189.007 200.749 189.793L199.67 190.773L200.749 191.925C201.669 192.908 201.828 193.804 201.828 198.01V202.944H203.434H205.04V197.925C205.04 193.575 205.184 192.775 206.12 191.926L207.198 190.947L206.12 189.795C205.278 188.896 205.04 187.912 205.04 185.32V181.998H208.52H212V180.119V178.239H203.167H194.333V180.119ZM65.145 183.166C66.3068 184.261 66.3838 184.736 66.3838 190.785C66.3838 196.669 66.2816 197.344 65.22 198.478C63.6198 200.187 58.6469 200.261 56.5521 198.608C55.1666 197.515 55.1414 197.378 55.1414 190.99C55.1414 185.05 55.2426 184.376 56.3053 183.241C57.9536 181.481 63.3088 181.435 65.145 183.166ZM155.654 183.042C156.783 183.987 156.859 184.463 156.859 190.643C156.859 196.672 156.759 197.342 155.695 198.478C154.16 200.117 149.216 200.235 147.356 198.677C146.221 197.727 146.152 197.271 146.152 190.705C146.152 184.09 146.212 183.698 147.356 182.897C149.114 181.667 154.115 181.754 155.654 183.042ZM182.387 183.166C183.938 184.628 183.963 186.134 182.462 187.737C181.483 188.782 180.759 188.98 177.912 188.98H174.525V185.489V181.998H177.837C180.5 181.998 181.391 182.227 182.387 183.166Z" fill="black"/>
</svg>
